HIERARCHY
ROOT Hips
{
  OFFSET 119.38 91.1609 124.89
  CHANNELS 6 Xposition Yposition Zposition Zrotation Xrotation Yrotation
  JOINT ToSpine
  {
    OFFSET -2.69724 7.43032 -0.144315
    CHANNELS 3 Zrotation Xrotation Yrotation
    JOINT Spine
    {
      OFFSET -0.0310711 10.7595 1.96963
      CHANNELS 3 Zrotation Xrotation Yrotation
      JOINT Spine1
      {
        OFFSET 19.9056 3.91189 0.764692
        CHANNELS 3 Zrotation Xrotation Yrotation
        JOINT Neck
        {
          OFFSET 25.9749 7.03908 -0.130764
          CHANNELS 3 Zrotation Xrotation Yrotation
          JOINT Head
          {
            OFFSET 9.52751 0.295786 -0.907742
            CHANNELS 3 Zrotation Xrotation Yrotation
            End Site
            {
              OFFSET 16.4037 0.713936 2.7358
            }
          }
        }
        JOINT LeftShoulder
        {
          OFFSET 17.7449 4.33886 11.7777
          CHANNELS 3 Zrotation Xrotation Yrotation
          JOINT LeftArm
          {
            OFFSET 0.911315 1.27913 9.80584
            CHANNELS 3 Zrotation Xrotation Yrotation
            JOINT LeftForeArm
            {
              OFFSET 28.6126 1.18197 -3.53199
              CHANNELS 3 Zrotation Xrotation Yrotation
              JOINT LeftHand
              {
                OFFSET 27.5088 0.0218783 0.327423
                CHANNELS 3 Zrotation Xrotation Yrotation
                End Site
                {
                  OFFSET 18.6038 -0.000155887 0.382096
                }
              }
            }
          }
        }
        JOINT RightShoulder
        {
          OFFSET 17.1009 2.89543 -12.2328
          CHANNELS 3 Zrotation Xrotation Yrotation
          JOINT RightArm
          {
            OFFSET 1.4228 0.178766 -10.211
            CHANNELS 3 Zrotation Xrotation Yrotation
            JOINT RightForeArm
            {
              OFFSET 28.733 1.87905 2.64907
              CHANNELS 3 Zrotation Xrotation Yrotation
              JOINT RightHand
              {
                OFFSET 27.4588 0.290562 -0.101845
                CHANNELS 3 Zrotation Xrotation Yrotation
                End Site
                {
                  OFFSET 17.8396 -0.255518 -0.000602873
                }
              }
            }
          }
        }
      }
    }
  }
  JOINT LeftUpLeg
  {
    OFFSET -5.61296 -2.22332 -10.2353
    CHANNELS 3 Zrotation Xrotation Yrotation
    JOINT LeftLeg
    {
      OFFSET 2.56703 -44.7417 -7.93097
      CHANNELS 3 Zrotation Xrotation Yrotation
      JOINT LeftFoot
      {
        OFFSET 3.16933 -46.5642 -3.96578
        CHANNELS 3 Zrotation Xrotation Yrotation
        JOINT LeftToeBase
        {
          OFFSET 0.346054 -6.02161 12.8035
          CHANNELS 3 Zrotation Xrotation Yrotation
          End Site
          {
            OFFSET 0.134235 -1.35082 5.13018
          }
        }
      }
    }
  }
  JOINT RightUpLeg
  {
    OFFSET -5.7928 -1.72406 10.6446
    CHANNELS 3 Zrotation Xrotation Yrotation
    JOINT RightLeg
    {
      OFFSET -2.57161 -44.7178 -7.85259
      CHANNELS 3 Zrotation Xrotation Yrotation
      JOINT RightFoot
      {
        OFFSET -3.10148 -46.5936 -4.03391
        CHANNELS 3 Zrotation Xrotation Yrotation
        JOINT RightToeBase
        {
          OFFSET -0.0828122 -6.13587 12.8035
          CHANNELS 3 Zrotation Xrotation Yrotation
          End Site
          {
            OFFSET -0.131328 -1.35082 5.13018
          }
        }
      }
    }
  }
}
MOTION
Frames:	12
Frame Time:	0.0333333
-2.32965 81.715 -5.89983 -65.0225 67.76 135.326 -70.1915 0 88.8779 122.258 61.215 -46.749 5.76665 17.0511 -3.54837 -155.023 31.7119 167.752 -166.922 71.6863 -168.22 2.37262 -2.32799 -28.6822 -82.9884 25.6605 -130.281 9.45738 10.9719 -33.7615 13.1594 -0.439822 -2.0756 0.5168 -2.26555 28.9269 -64.3059 -53.2369 99.654 5.67743 -3.87942 37.0392 0.409286 -0.00275384 1.34909 -43.694 1.57517 91.7538 -7.85698 65.6181 -6.91293 7.10969 -1.51051 -0.984837 -9.07713 -44.2035 15.9574 -9.11649 -0.83553 92.0034 163.648 73.5048 -158.851 -7.92081 -5.85667 1.14676 8.73983 -15.2384 -13.9475 
-3.33428 83.2307 -12.056 -60.9951 69.1607 130.871 -70.1915 0 88.8779 124.709 60.4645 -49.6071 4.79854 17.0324 -1.46091 -157.941 31.6594 169.065 -166.56 71.4985 -168.989 2.0056 -3.45061 -25.7288 -82.4991 29.0374 -134.52 13.1361 13.8071 -38.9013 14.2501 -0.836518 -4.88382 0.268586 -0.692078 27.4648 -63.6268 -57.5282 100.479 3.05119 -0.413015 35.725 3.36943 0.0262021 0.713918 -51.2099 3.19123 95.0934 -6.08061 59.7255 -10.2539 6.85118 -1.2396 -0.953672 -9.55001 -45.6369 14.7413 -8.7376 -3.36245 88.5372 155.796 80.3137 -153.577 -7.16892 -6.54859 1.09967 10.3997 -21.724 -14.07 
-4.30319 85.2957 -19.0862 -48.8898 69.2103 120.225 -70.1915 0 88.8779 124.868 61.7768 -46.6464 3.52347 17.3868 0.908808 -159.215 31.8238 171.951 -162.941 71.5139 -172.662 1.84915 -4.11156 -24.5727 -79.5015 31.8789 -133.542 17.112 16.547 -42.9156 16.7966 -1.19129 -6.23955 -0.00561949 1.28035 26.9235 -61.4661 -57.8871 101.383 -0.697445 5.33716 33.1173 4.22333 0.034486 0.722595 -57.8032 2.58212 92.782 -4.40544 51.8966 -11.6506 5.52549 -3.18491 -0.855408 -8.47589 -43.3503 18.5054 -10.146 -5.33832 81.9003 103.786 86.4905 -102.399 -7.46414 -5.36265 1.1111 10.767 -23.533 -13.3907 
-4.80144 86.8054 -26.6886 -32.4896 69.8155 105.081 -70.1915 0 88.8779 124.834 64.3292 -43.5433 4.3486 18.7234 2.15836 -158.955 30.8723 171.238 -155.838 70.0319 179.405 1.98807 -3.1044 -24.6776 -77.4775 34.4532 -128.685 20.4104 20.9624 -42.3149 17.6496 -1.29213 -6.49163 -0.205834 2.77184 26.6985 -59.1174 -56.4242 104.387 -4.72006 12.7872 30.8273 5.38236 0.0353017 0.478167 -61.0997 0.756682 88.3318 -3.92558 52.1426 -7.39466 1.5115 -3.62293 -0.508282 -7.136 -37.5731 24.2607 -15.0514 -4.4287 76.1515 32.0808 84.1723 -30.5159 -6.83703 -2.78138 1.033 9.73103 -17.3785 -16.0995 
-4.80378 88.0878 -33.8754 -19.5368 70.1556 92.8883 -70.1915 0 88.8779 128.34 65.32 -45.0425 6.14727 20.0333 3.18617 -159.226 29.3899 168.318 -154.655 68.2877 177.051 2.0296 -2.52095 -24.1579 -77.8779 36.7458 -120.786 15.9752 22.2915 -32.4767 15.5236 -1.15334 -6.61468 -0.194439 2.22844 29.2348 -65.4356 -52.5543 102.414 -6.13036 15.1564 31.0205 8.24204 0.11065 1.29476 -58.3548 -0.235055 85.7907 -6.20775 63.9403 -3.16049 0.12277 3.78575 0.139244 -6.50418 -24.1791 19.7721 -22.9105 -2.15406 73.6719 18.3859 80.4415 -15.4492 -6.47956 -6.32445 1.05147 9.5057 -14.7056 -17.711 
-4.55911 88.1129 -40.989 -1.74337 68.462 77.2622 -70.1915 0 88.8779 131.763 66.403 -45.5785 8.51459 21.6945 3.91411 -161.219 27.5849 166.926 -151.447 65.7409 172.548 2.06606 -1.93184 -23.6331 -80.722 37.0104 -108.651 9.83808 24.7877 -20.5032 14.6132 -0.638063 -3.21233 -0.110155 1.60703 29.9957 -74.7039 -49.1978 103.325 -6.07568 13.9635 32.8398 10.1412 0.182269 1.82365 -49.9432 0.0870307 83.7553 -30.0955 82.3566 18.963 3.59863 5.96798 -0.30521 -7.26908 -30.4718 14.8574 -27.7893 3.82388 74.9393 15.7417 78.2256 -9.46207 -6.45797 -6.15896 1.04749 10.4959 -19.8197 -17.1312 
-4.97671 87.2645 -47.2885 20.4094 65.5416 59.3201 -70.1915 0 88.8779 141.737 65.0765 -51.1021 10.2907 23.7583 3.95282 -163.587 25.2862 168.111 -150.356 63.0725 172.471 2.0415 -1.58223 -22.7509 -100.752 36.5319 -85.9751 -0.362861 41.5843 -5.68533 14.6089 -0.163861 0.400195 -0.0839395 1.5751 28.8977 -81.9787 -46.9837 108.858 -4.19356 8.34527 39.6042 10.4462 0.245273 2.48855 -39.0375 2.18978 82.4239 -159.782 77.0164 155.197 6.36584 7.26911 -0.757983 -7.6461 -35.4642 18.1388 -32.0492 11.1902 76.8201 17.4186 78.5449 -8.8963 -6.98881 -5.66793 1.07855 10.3271 -20.5277 -15.3439 
-5.12019 86.5018 -54.3121 30.0448 60.3166 52.844 -70.1915 0 88.8779 147.34 64.2055 -53.863 9.0109 24.5077 5.53205 -164.313 23.5013 169.633 -148.204 60.9221 172.068 2.00565 -1.21852 -21.7748 -99.8251 34.7539 -72.2616 -8.38667 49.1668 3.73089 15.3322 -0.0012135 1.64452 -0.122312 2.42217 25.3455 -85.3816 -47.322 116.988 1.71244 0.609094 49.4749 8.94165 0.20229 2.41522 -23.0784 2.04687 79.0438 -168.158 65.2663 166.646 8.36942 6.42128 -1.12309 -7.85855 -36.8866 17.6481 -36.3921 15.1238 78.6852 16.6484 77.0541 -3.63353 -7.48476 -8.81052 1.13466 9.75907 -18.1901 -15.3275 
-3.96026 86.6085 -63.2902 29.8262 55.3561 52.6744 -70.1915 0 88.8779 148.326 65.9431 -53.901 5.89868 24.9364 6.29459 -164.417 23.7258 169.662 -145.611 60.605 169.6 1.94979 -0.434901 -20.1617 -96.6694 34.4594 -63.5659 -13.031 51.7572 6.76645 15.2867 -0.318833 -0.671589 0.0267989 2.51022 19.4139 -87.3919 -49.5423 122.968 6.72226 -2.55635 62.1484 10.7576 0.315541 3.19265 -6.76163 -1.48548 77.5443 -167.857 63.6704 161.786 8.13228 4.30142 -1.085 -8.10114 -37.9472 16.706 -43.6545 13.8375 80.3613 10.5601 69.6205 8.35389 -9.68676 -10.7617 1.20859 10.4535 -20.7959 -15.6775 
-2.09645 88.4378 -73.3216 30.7364 51.3687 46.708 -70.1915 0 88.8779 151.153 67.9711 -58.1053 3.35758 27.606 1.87419 -163.08 24.889 169.125 -147.293 62.2613 171.037 1.5691 -3.196 -18.1147 -94.0777 36.2615 -56.9814 -12.7419 52.1108 3.93824 15.6028 -0.261198 -0.211781 0.189446 1.79597 14.0139 -88.7305 -49.7299 124.045 10.1385 -2.82289 73.4262 12.4405 0.528474 4.73923 2.6727 -2.82944 83.7602 -162.711 73.3688 154.894 6.34869 2.2286 -0.839761 -8.03662 -36.7178 15.8948 -54.2662 7.73615 85.0494 6.17163 57.5062 17.0586 -10.493 -13.8473 1.16822 8.73667 -14.1277 -15.0419 
1.44577 91.2611 -83.0676 30.9943 49.3256 41.5672 -70.1915 0 88.8779 151.74 69.5826 -62.2833 3.51249 29.7124 -2.14765 -161.767 26.1571 168.82 -150.577 64.1911 173.116 1.52462 -4.23072 -18.7339 -93.5252 37.0754 -59.4538 -14.8937 51.2867 6.35379 14.6169 -0.4231 -1.57449 0.227865 0.692861 13.0316 -86.6392 -47.7854 123.967 14.7233 -2.83339 80.0268 9.76766 0.488684 5.74053 4.08832 -0.822122 91.0595 -86.489 86.0803 78.8219 5.07509 1.24793 -0.689468 -8.24907 -38.2153 15.8266 -63.62 4.89073 93.1266 3.30388 45.0531 11.9592 -8.56047 -12.7416 1.17107 -0.386865 5.08812 -3.01182 
5.41101 93.6237 -92.2297 27.312 50.0026 43.6757 -70.1915 0 88.8779 143.105 70.5816 -54.5002 6.01392 28.4731 -6.15575 -158.866 26.2072 168.283 -150.92 64.4476 173.832 1.77152 -3.71821 -22.3279 -91.9264 36.8918 -68.8365 -14.9914 48.1052 6.45115 13.1184 -0.469366 -2.3376 0.182898 0.954764 16.1183 -78.883 -45.9654 124.646 15.0485 -3.30425 78.0618 9.9248 0.528814 6.12916 0.841298 -0.279371 96.5665 -13.5272 75.202 1.59737 3.23728 3.25927 -0.360804 -8.26212 -39.492 16.9714 -66.5235 3.95876 92.5101 2.39074 43.6382 5.60381 -0.804445 1.43294 0.173122 -41.6887 41.7028 38.222 
